<svg width="132" height="48" viewBox="0 0 132 48" fill="none" xmlns="http://www.w3.org/2000/svg">
<g filter="url(#filter0_d_348_1665)">
<rect x="7.73047" y="6.5" width="111.27" height="31" rx="10" fill="white" shape-rendering="crispEdges"/>
<path d="M31.5101 23.6868H33.0914C33.009 24.4445 32.7921 25.1226 32.4407 25.721C32.0893 26.3195 31.5924 26.7945 30.95 27.1459C30.3076 27.4918 29.506 27.6647 28.5451 27.6647C27.8423 27.6647 27.2027 27.5329 26.6261 27.2694C26.0551 27.0058 25.5637 26.6325 25.1519 26.1493C24.7401 25.6606 24.4217 25.0759 24.1965 24.3951C23.9769 23.7087 23.8671 22.9455 23.8671 22.1055V20.9113C23.8671 20.0712 23.9769 19.3107 24.1965 18.6299C24.4217 17.9436 24.7429 17.3561 25.1602 16.8674C25.5829 16.3787 26.0908 16.0026 26.6838 15.7391C27.2768 15.4755 27.9439 15.3438 28.6851 15.3438C29.5911 15.3438 30.357 15.514 30.983 15.8544C31.6089 16.1948 32.0948 16.667 32.4407 17.271C32.7921 17.8695 33.009 18.564 33.0914 19.3547H31.5101C31.4332 18.7946 31.2904 18.3142 31.0818 17.9134C30.8731 17.5071 30.5766 17.1941 30.1923 16.9745C29.808 16.7549 29.3056 16.645 28.6851 16.645C28.1525 16.645 27.6831 16.7466 27.2768 16.9498C26.876 17.1529 26.5383 17.4412 26.2638 17.8145C25.9947 18.1879 25.7916 18.6354 25.6543 19.157C25.517 19.6786 25.4484 20.2579 25.4484 20.8948V22.1055C25.4484 22.693 25.5088 23.2448 25.6296 23.7609C25.7559 24.277 25.9453 24.73 26.1979 25.1198C26.4504 25.5096 26.7716 25.8171 27.1615 26.0422C27.5513 26.2619 28.0125 26.3717 28.5451 26.3717C29.2205 26.3717 29.7585 26.2646 30.1594 26.0505C30.5602 25.8363 30.8622 25.5289 31.0653 25.1281C31.274 24.7272 31.4222 24.2468 31.5101 23.6868ZM34.6232 23.1432V22.9538C34.6232 22.3114 34.7166 21.7156 34.9033 21.1666C35.0899 20.612 35.359 20.1316 35.7104 19.7253C36.0618 19.3135 36.4873 18.995 36.9869 18.7699C37.4866 18.5393 38.0466 18.424 38.6671 18.424C39.293 18.424 39.8558 18.5393 40.3554 18.7699C40.8606 18.995 41.2889 19.3135 41.6403 19.7253C41.9971 20.1316 42.2689 20.612 42.4556 21.1666C42.6423 21.7156 42.7356 22.3114 42.7356 22.9538V23.1432C42.7356 23.7856 42.6423 24.3813 42.4556 24.9304C42.2689 25.4795 41.9971 25.9599 41.6403 26.3717C41.2889 26.778 40.8633 27.0964 40.3637 27.327C39.8695 27.5522 39.3095 27.6647 38.6836 27.6647C38.0576 27.6647 37.4948 27.5522 36.9952 27.327C36.4955 27.0964 36.0673 26.778 35.7104 26.3717C35.359 25.9599 35.0899 25.4795 34.9033 24.9304C34.7166 24.3813 34.6232 23.7856 34.6232 23.1432ZM36.1469 22.9538V23.1432C36.1469 23.5879 36.199 24.008 36.3034 24.4033C36.4077 24.7931 36.5642 25.139 36.7728 25.441C36.9869 25.743 37.2532 25.9818 37.5717 26.1575C37.8902 26.3278 38.2608 26.4129 38.6836 26.4129C39.1008 26.4129 39.466 26.3278 39.7789 26.1575C40.0974 25.9818 40.3609 25.743 40.5696 25.441C40.7782 25.139 40.9347 24.7931 41.039 24.4033C41.1488 24.008 41.2037 23.5879 41.2037 23.1432V22.9538C41.2037 22.5145 41.1488 22.1 41.039 21.7101C40.9347 21.3148 40.7755 20.9662 40.5613 20.6642C40.3527 20.3567 40.0892 20.1151 39.7707 19.9394C39.4577 19.7637 39.0899 19.6759 38.6671 19.6759C38.2498 19.6759 37.8819 19.7637 37.5635 19.9394C37.2505 20.1151 36.9869 20.3567 36.7728 20.6642C36.5642 20.9662 36.4077 21.3148 36.3034 21.7101C36.199 22.1 36.1469 22.5145 36.1469 22.9538ZM46.17 20.4912V27.5H44.6464V18.5887H46.0877L46.17 20.4912ZM45.8076 22.7067L45.1735 22.682C45.179 22.0725 45.2696 21.5097 45.4453 20.9936C45.621 20.472 45.868 20.019 46.1865 19.6347C46.5049 19.2503 46.8838 18.9538 47.323 18.7452C47.7678 18.5311 48.2592 18.424 48.7973 18.424C49.2365 18.424 49.6318 18.4844 49.9832 18.6052C50.3346 18.7205 50.6339 18.9072 50.881 19.1652C51.1335 19.4233 51.3257 19.7582 51.4575 20.17C51.5893 20.5763 51.6551 21.0732 51.6551 21.6607V27.5H50.1233V21.6443C50.1233 21.1775 50.0546 20.8042 49.9174 20.5242C49.7801 20.2387 49.5797 20.0328 49.3161 19.9065C49.0526 19.7747 48.7286 19.7088 48.3443 19.7088C47.9654 19.7088 47.6195 19.7884 47.3066 19.9477C46.9991 20.1069 46.7328 20.3265 46.5077 20.6065C46.2881 20.8865 46.1151 21.2077 45.9888 21.5701C45.868 21.927 45.8076 22.3059 45.8076 22.7067ZM57.7003 18.5887V19.7582H52.8823V18.5887H57.7003ZM54.513 16.4227H56.0367V25.2928C56.0367 25.5948 56.0833 25.8226 56.1767 25.9764C56.27 26.1301 56.3908 26.2317 56.5391 26.2811C56.6873 26.3305 56.8465 26.3552 57.0167 26.3552C57.143 26.3552 57.2748 26.3442 57.4121 26.3223C57.5548 26.2948 57.6619 26.2728 57.7333 26.2564L57.7415 27.5C57.6207 27.5384 57.4615 27.5741 57.2638 27.6071C57.0716 27.6455 56.8383 27.6647 56.5638 27.6647C56.1904 27.6647 55.8472 27.5906 55.5343 27.4423C55.2213 27.2941 54.9715 27.047 54.7848 26.7011C54.6036 26.3497 54.513 25.8775 54.513 25.2845V16.4227ZM64.742 25.9764V21.3889C64.742 21.0375 64.6707 20.7328 64.5279 20.4748C64.3906 20.2112 64.182 20.008 63.902 19.8653C63.622 19.7225 63.276 19.6512 62.8642 19.6512C62.4799 19.6512 62.1422 19.717 61.8512 19.8488C61.5657 19.9806 61.3406 20.1535 61.1759 20.3677C61.0167 20.5818 60.937 20.8124 60.937 21.0595H59.4134C59.4134 20.741 59.4958 20.4253 59.6605 20.1124C59.8252 19.7994 60.0613 19.5166 60.3688 19.2641C60.6817 19.006 61.0551 18.8029 61.4888 18.6546C61.9281 18.5009 62.4168 18.424 62.9548 18.424C63.6027 18.424 64.1738 18.5338 64.6679 18.7534C65.1676 18.9731 65.5574 19.3052 65.8374 19.75C66.1229 20.1892 66.2657 20.741 66.2657 21.4054V25.5563C66.2657 25.8528 66.2904 26.1685 66.3398 26.5035C66.3947 26.8384 66.4743 27.1266 66.5787 27.3682V27.5H64.9891C64.9122 27.3243 64.8519 27.0909 64.8079 26.7999C64.764 26.5035 64.742 26.2289 64.742 25.9764ZM65.0056 22.0972L65.0221 23.1679H63.4819C63.0482 23.1679 62.6611 23.2036 62.3207 23.275C61.9803 23.3409 61.6947 23.4424 61.4641 23.5797C61.2335 23.717 61.0578 23.8899 60.937 24.0986C60.8162 24.3017 60.7558 24.5406 60.7558 24.8151C60.7558 25.0951 60.819 25.3504 60.9453 25.581C61.0716 25.8116 61.261 25.9956 61.5136 26.1328C61.7716 26.2646 62.0873 26.3305 62.4607 26.3305C62.9274 26.3305 63.3392 26.2317 63.6961 26.034C64.053 25.8363 64.3357 25.5948 64.5444 25.3092C64.7585 25.0237 64.8738 24.7465 64.8903 24.4774L65.5409 25.2104C65.5025 25.441 65.3982 25.6963 65.228 25.9764C65.0577 26.2564 64.8299 26.5254 64.5444 26.7835C64.2644 27.036 63.9294 27.2474 63.5396 27.4176C63.1552 27.5824 62.7215 27.6647 62.2383 27.6647C61.6343 27.6647 61.1045 27.5467 60.6488 27.3106C60.1985 27.0745 59.8472 26.7588 59.5946 26.3634C59.3475 25.9626 59.224 25.5151 59.224 25.021C59.224 24.5433 59.3173 24.1233 59.504 23.7609C59.6907 23.393 59.9597 23.0883 60.3111 22.8467C60.6625 22.5996 61.0853 22.4129 61.5794 22.2867C62.0736 22.1604 62.6254 22.0972 63.2349 22.0972H65.0056ZM72.2285 26.4129C72.5909 26.4129 72.9258 26.3387 73.2333 26.1905C73.5408 26.0422 73.7933 25.8391 73.991 25.581C74.1887 25.3175 74.3012 25.0182 74.3287 24.6833H75.7782C75.7507 25.2104 75.5723 25.7018 75.2429 26.1575C74.9189 26.6078 74.4934 26.9729 73.9663 27.2529C73.4392 27.5275 72.8599 27.6647 72.2285 27.6647C71.5586 27.6647 70.9739 27.5467 70.4742 27.3106C69.9801 27.0745 69.5683 26.7505 69.2389 26.3387C68.9149 25.9269 68.6706 25.4547 68.5059 24.9222C68.3466 24.3841 68.267 23.8158 68.267 23.2173V22.8714C68.267 22.2729 68.3466 21.7074 68.5059 21.1748C68.6706 20.6367 68.9149 20.1618 69.2389 19.75C69.5683 19.3382 69.9801 19.0142 70.4742 18.7781C70.9739 18.5421 71.5586 18.424 72.2285 18.424C72.9258 18.424 73.5353 18.5668 74.0569 18.8523C74.5785 19.1323 74.9875 19.5166 75.284 20.0053C75.586 20.4885 75.7507 21.0375 75.7782 21.6525H74.3287C74.3012 21.2846 74.1969 20.9524 74.0157 20.6559C73.84 20.3594 73.5984 20.1234 73.2909 19.9477C72.989 19.7665 72.6348 19.6759 72.2285 19.6759C71.7618 19.6759 71.3692 19.7692 71.0508 19.9559C70.7378 20.1371 70.488 20.3842 70.3013 20.6971C70.1201 21.0046 69.9883 21.3478 69.906 21.7266C69.8291 22.1 69.7907 22.4816 69.7907 22.8714V23.2173C69.7907 23.6071 69.8291 23.9915 69.906 24.3703C69.9828 24.7492 70.1119 25.0924 70.2931 25.3998C70.4797 25.7073 70.7296 25.9544 71.0425 26.1411C71.361 26.3223 71.7563 26.4129 72.2285 26.4129ZM81.2221 18.5887V19.7582H76.4041V18.5887H81.2221ZM78.0348 16.4227H79.5585V25.2928C79.5585 25.5948 79.6051 25.8226 79.6985 25.9764C79.7918 26.1301 79.9126 26.2317 80.0609 26.2811C80.2091 26.3305 80.3683 26.3552 80.5386 26.3552C80.6648 26.3552 80.7966 26.3442 80.9339 26.3223C81.0766 26.2948 81.1837 26.2728 81.2551 26.2564L81.2633 27.5C81.1425 27.5384 80.9833 27.5741 80.7856 27.6071C80.5935 27.6455 80.3601 27.6647 80.0856 27.6647C79.7122 27.6647 79.3691 27.5906 79.0561 27.4423C78.7431 27.2941 78.4933 27.047 78.3066 26.7011C78.1254 26.3497 78.0348 25.8775 78.0348 25.2845V16.4227ZM92.6454 25.441V18.5887H94.1773V27.5H92.7195L92.6454 25.441ZM92.9336 23.5632L93.5678 23.5468C93.5678 24.1397 93.5047 24.6888 93.3784 25.1939C93.2576 25.6936 93.0599 26.1273 92.7854 26.4952C92.5109 26.8631 92.1512 27.1513 91.7065 27.36C91.2617 27.5631 90.7209 27.6647 90.084 27.6647C89.6502 27.6647 89.2522 27.6016 88.8898 27.4753C88.5329 27.349 88.2254 27.1541 87.9674 26.8905C87.7093 26.627 87.5089 26.2838 87.3661 25.861C87.2289 25.4383 87.1602 24.9304 87.1602 24.3374V18.5887H88.6839V24.3539C88.6839 24.7547 88.7278 25.0869 88.8157 25.3504C88.909 25.6085 89.0325 25.8144 89.1863 25.9681C89.3455 26.1164 89.5212 26.2207 89.7134 26.2811C89.911 26.3415 90.1142 26.3717 90.3228 26.3717C90.9707 26.3717 91.4841 26.2481 91.863 26.0011C92.2418 25.7485 92.5136 25.4108 92.6783 24.988C92.8485 24.5598 92.9336 24.0848 92.9336 23.5632ZM101.688 25.1363C101.688 24.9167 101.639 24.7135 101.54 24.5268C101.447 24.3347 101.252 24.1617 100.955 24.008C100.664 23.8487 100.225 23.7115 99.6377 23.5962C99.1435 23.4918 98.696 23.3683 98.2952 23.2256C97.8999 23.0828 97.5622 22.9098 97.2822 22.7067C97.0077 22.5035 96.7963 22.2647 96.648 21.9902C96.4998 21.7156 96.4257 21.3944 96.4257 21.0266C96.4257 20.6752 96.5025 20.343 96.6563 20.03C96.8155 19.717 97.0379 19.4398 97.3234 19.1982C97.6144 18.9566 97.963 18.7672 98.3693 18.6299C98.7757 18.4926 99.2286 18.424 99.7283 18.424C100.442 18.424 101.052 18.5503 101.557 18.8029C102.062 19.0554 102.449 19.3931 102.718 19.8159C102.987 20.2332 103.121 20.6971 103.121 21.2077H101.598C101.598 20.9607 101.524 20.7218 101.375 20.4912C101.233 20.2551 101.021 20.0602 100.741 19.9065C100.467 19.7527 100.129 19.6759 99.7283 19.6759C99.3055 19.6759 98.9623 19.7418 98.6988 19.8735C98.4407 19.9998 98.2513 20.1618 98.1305 20.3594C98.0152 20.5571 97.9576 20.7658 97.9576 20.9854C97.9576 21.1501 97.985 21.2983 98.0399 21.4301C98.1003 21.5564 98.2046 21.6745 98.3529 21.7843C98.5011 21.8886 98.7098 21.9874 98.9788 22.0808C99.2478 22.1741 99.591 22.2674 100.008 22.3608C100.739 22.5255 101.34 22.7232 101.812 22.9538C102.284 23.1844 102.636 23.4671 102.866 23.8021C103.097 24.137 103.212 24.5433 103.212 25.021C103.212 25.4108 103.13 25.7677 102.965 26.0917C102.806 26.4156 102.572 26.6956 102.265 26.9317C101.963 27.1623 101.601 27.3435 101.178 27.4753C100.761 27.6016 100.291 27.6647 99.7695 27.6647C98.9843 27.6647 98.3199 27.5247 97.7764 27.2447C97.2328 26.9647 96.821 26.6023 96.541 26.1575C96.2609 25.7128 96.1209 25.2434 96.1209 24.7492H97.6528C97.6748 25.1665 97.7956 25.4987 98.0152 25.7457C98.2348 25.9873 98.5039 26.1603 98.8223 26.2646C99.1408 26.3634 99.4565 26.4129 99.7695 26.4129C100.187 26.4129 100.535 26.358 100.815 26.2481C101.101 26.1383 101.318 25.9873 101.466 25.7952C101.614 25.603 101.688 25.3834 101.688 25.1363Z" fill="#333333"/>
<mask id="path-3-inside-1_348_1665" fill="white">
<path d="M119 17H124V27H119V17Z"/>
</mask>
<g clip-path="url(#paint0_diamond_348_1665_clip_path)" data-figma-skip-parse="true" mask="url(#path-3-inside-1_348_1665)"><g transform="matrix(0.005 0 0 0.005 119 22)"><rect x="0" y="0" width="1200" height="1200" fill="url(#paint0_diamond_348_1665)" opacity="1" shape-rendering="crispEdges"/><rect x="0" y="0" width="1200" height="1200" transform="scale(1 -1)" fill="url(#paint0_diamond_348_1665)" opacity="1" shape-rendering="crispEdges"/><rect x="0" y="0" width="1200" height="1200" transform="scale(-1 1)" fill="url(#paint0_diamond_348_1665)" opacity="1" shape-rendering="crispEdges"/><rect x="0" y="0" width="1200" height="1200" transform="scale(-1)" fill="url(#paint0_diamond_348_1665)" opacity="1" shape-rendering="crispEdges"/></g></g><path d="M119 17V12H114V17H119ZM119 27H114V32H119V27ZM119 22H124V12H119V22ZM124 22H119V32H124V22ZM124 27V17H114V27H124Z" data-figma-gradient-fill="{&#34;type&#34;:&#34;GRADIENT_DIAMOND&#34;,&#34;stops&#34;:[{&#34;color&#34;:{&#34;r&#34;:1.0,&#34;g&#34;:1.0,&#34;b&#34;:1.0,&#34;a&#34;:1.0},&#34;position&#34;:0.99999988079071045},{&#34;color&#34;:{&#34;r&#34;:0.0,&#34;g&#34;:0.0,&#34;b&#34;:0.0,&#34;a&#34;:0.0},&#34;position&#34;:1.0}],&#34;stopsVar&#34;:[{&#34;color&#34;:{&#34;r&#34;:1.0,&#34;g&#34;:1.0,&#34;b&#34;:1.0,&#34;a&#34;:1.0},&#34;position&#34;:0.99999988079071045},{&#34;color&#34;:{&#34;r&#34;:0.0,&#34;g&#34;:0.0,&#34;b&#34;:0.0,&#34;a&#34;:0.0},&#34;position&#34;:1.0}],&#34;transform&#34;:{&#34;m00&#34;:10.0,&#34;m01&#34;:0.0,&#34;m02&#34;:114.0,&#34;m10&#34;:0.0,&#34;m11&#34;:10.0,&#34;m12&#34;:17.0},&#34;opacity&#34;:1.0,&#34;blendMode&#34;:&#34;NORMAL&#34;,&#34;visible&#34;:true}" mask="url(#path-3-inside-1_348_1665)"/>
</g>
<defs>
<filter id="filter0_d_348_1665" x="-0.00812101" y="0.69606" width="131.747" height="46.4772" filterUnits="userSpaceOnUse" color-interpolation-filters="sRGB">
<feFlood flood-opacity="0" result="BackgroundImageFix"/>
<feColorMatrix in="SourceAlpha" type="matrix" values="0 0 0 0 0 0 0 0 0 0 0 0 0 0 0 0 0 0 127 0" result="hardAlpha"/>
<feOffset dy="1.93465"/>
<feGaussianBlur stdDeviation="3.86929"/>
<feComposite in2="hardAlpha" operator="out"/>
<feColorMatrix type="matrix" values="0 0 0 0 0 0 0 0 0 0 0 0 0 0 0 0 0 0 0.15 0"/>
<feBlend mode="normal" in2="BackgroundImageFix" result="effect1_dropShadow_348_1665"/>
<feBlend mode="normal" in="SourceGraphic" in2="effect1_dropShadow_348_1665" result="shape"/>
</filter>
<clipPath id="paint0_diamond_348_1665_clip_path"><path d="M119 17V12H114V17H119ZM119 27H114V32H119V27ZM119 22H124V12H119V22ZM124 22H119V32H124V22ZM124 27V17H114V27H124Z" mask="url(#path-3-inside-1_348_1665)"/></clipPath><linearGradient id="paint0_diamond_348_1665" x1="0" y1="0" x2="500" y2="500" gradientUnits="userSpaceOnUse">
<stop offset="1" stop-color="white"/>
<stop offset="1" stop-opacity="0"/>
</linearGradient>
</defs>
</svg>
