<svg width="51" height="51" viewBox="0 0 51 51" fill="none" xmlns="http://www.w3.org/2000/svg">
<path d="M48.4188 16.4731C49.493 17.3521 50.1766 18.6216 50.1766 20.0864V45.6724C50.1766 48.3091 48.0281 50.3599 45.4891 50.3599H4.86406C2.22734 50.3599 0.176563 48.3091 0.176563 45.6724V20.0864C0.176563 18.6216 0.762501 17.3521 1.83672 16.4731C2.22734 16.1802 12.6766 7.78174 15.0203 5.82861C17.2664 4.0708 20.8797 0.359863 25.1766 0.359863C29.3758 0.359863 33.0867 4.16846 35.2352 5.82861C37.4813 7.68408 47.9305 16.0825 48.4188 16.4731ZM45.4891 45.0864V20.3794C45.4891 20.1841 45.3914 19.9888 45.1961 19.8911C43.6336 18.6216 34.5516 11.395 32.3055 9.53955C30.5477 8.17236 27.4227 5.04736 25.1766 5.04736C22.8328 5.04736 19.7078 8.07471 17.95 9.53955C15.7039 11.395 6.62188 18.6216 5.05938 19.8911C4.86406 19.9888 4.86406 20.1841 4.86406 20.3794V45.0864C4.86406 45.4771 5.05938 45.6724 5.45 45.6724H44.9031C45.1961 45.6724 45.4891 45.4771 45.4891 45.0864ZM42.3641 26.8247C42.7547 27.313 42.657 28.0942 42.1688 28.4849C39.3367 30.731 36.3094 33.0747 35.2352 34.0513C32.9891 35.8091 29.3758 39.4224 25.1766 39.4224C20.8797 39.4224 17.1688 35.7114 15.0203 34.0513C13.9461 33.1724 10.9188 30.731 8.08672 28.4849C7.59844 28.0942 7.50078 27.313 7.89141 26.8247L9.45391 24.9692C9.84453 24.481 10.5281 24.3833 11.1141 24.8716C13.8484 27.1177 16.7781 29.4614 17.95 30.3403C19.7078 31.7075 22.8328 34.7349 25.1766 34.7349C27.4227 34.7349 30.5477 31.8052 32.3055 30.3403C33.4773 29.4614 36.407 27.1177 39.1414 24.8716C39.7273 24.3833 40.4109 24.481 40.8016 24.9692L42.3641 26.8247Z" fill="white"/>
</svg>
