<svg width="76" height="46" viewBox="0 0 76 46" fill="none" xmlns="http://www.w3.org/2000/svg">
<circle cx="26" cy="10" r="10" fill="#EA001B"/>
<circle cx="42" cy="10" r="10" fill="#F79F1A"/>
<path d="M10.491 31.965V41H9.009V34.812L6.253 41H5.226L2.457 34.812V41H0.975V31.965H2.574L5.746 39.05L8.905 31.965H10.491ZM11.9449 37.386C11.9449 36.6667 12.0922 36.0297 12.3869 35.475C12.6902 34.9203 13.0975 34.4913 13.6089 34.188C14.1289 33.876 14.7009 33.72 15.3249 33.72C15.8882 33.72 16.3779 33.8327 16.7939 34.058C17.2185 34.2747 17.5565 34.5477 17.8079 34.877V33.837H19.3029V41H17.8079V39.934C17.5565 40.272 17.2142 40.5537 16.7809 40.779C16.3475 41.0043 15.8535 41.117 15.2989 41.117C14.6835 41.117 14.1202 40.961 13.6089 40.649C13.0975 40.3283 12.6902 39.8863 12.3869 39.323C12.0922 38.751 11.9449 38.1053 11.9449 37.386ZM17.8079 37.412C17.8079 36.918 17.7039 36.489 17.4959 36.125C17.2965 35.761 17.0322 35.4837 16.7029 35.293C16.3735 35.1023 16.0182 35.007 15.6369 35.007C15.2555 35.007 14.9002 35.1023 14.5709 35.293C14.2415 35.475 13.9729 35.748 13.7649 36.112C13.5655 36.4673 13.4659 36.892 13.4659 37.386C13.4659 37.88 13.5655 38.3133 13.7649 38.686C13.9729 39.0587 14.2415 39.3447 14.5709 39.544C14.9089 39.7347 15.2642 39.83 15.6369 39.83C16.0182 39.83 16.3735 39.7347 16.7029 39.544C17.0322 39.3533 17.2965 39.076 17.4959 38.712C17.7039 38.3393 17.8079 37.906 17.8079 37.412ZM23.8494 41.117C23.2861 41.117 22.7791 41.0173 22.3284 40.818C21.8864 40.61 21.5354 40.3327 21.2754 39.986C21.0154 39.6307 20.8767 39.2363 20.8594 38.803H22.3934C22.4194 39.1063 22.5624 39.362 22.8224 39.57C23.0911 39.7693 23.4247 39.869 23.8234 39.869C24.2394 39.869 24.5601 39.791 24.7854 39.635C25.0194 39.4703 25.1364 39.2623 25.1364 39.011C25.1364 38.7423 25.0064 38.543 24.7464 38.413C24.4951 38.283 24.0921 38.14 23.5374 37.984C23.0001 37.8367 22.5624 37.6937 22.2244 37.555C21.8864 37.4163 21.5917 37.204 21.3404 36.918C21.0977 36.632 20.9764 36.255 20.9764 35.787C20.9764 35.4057 21.0891 35.059 21.3144 34.747C21.5397 34.4263 21.8604 34.175 22.2764 33.993C22.7011 33.811 23.1864 33.72 23.7324 33.72C24.5471 33.72 25.2014 33.928 25.6954 34.344C26.1981 34.7513 26.4667 35.3103 26.5014 36.021H25.0194C24.9934 35.7003 24.8634 35.4447 24.6294 35.254C24.3954 35.0633 24.0791 34.968 23.6804 34.968C23.2904 34.968 22.9914 35.0417 22.7834 35.189C22.5754 35.3363 22.4714 35.5313 22.4714 35.774C22.4714 35.9647 22.5407 36.125 22.6794 36.255C22.8181 36.385 22.9871 36.489 23.1864 36.567C23.3857 36.6363 23.6804 36.7273 24.0704 36.84C24.5904 36.9787 25.0151 37.1217 25.3444 37.269C25.6824 37.4077 25.9727 37.6157 26.2154 37.893C26.4581 38.1703 26.5837 38.5387 26.5924 38.998C26.5924 39.4053 26.4797 39.7693 26.2544 40.09C26.0291 40.4107 25.7084 40.662 25.2924 40.844C24.8851 41.026 24.4041 41.117 23.8494 41.117ZM29.9228 35.046V39.011C29.9228 39.2797 29.9834 39.4747 30.1048 39.596C30.2348 39.7087 30.4514 39.765 30.7548 39.765H31.6648V41H30.4948C29.8274 41 29.3161 40.844 28.9608 40.532C28.6054 40.22 28.4278 39.713 28.4278 39.011V35.046H27.5828V33.837H28.4278V32.056H29.9228V33.837H31.6648V35.046H29.9228ZM39.5957 37.243C39.5957 37.5117 39.5783 37.7543 39.5437 37.971H34.0707C34.114 38.543 34.3263 39.0023 34.7077 39.349C35.089 39.6957 35.557 39.869 36.1117 39.869C36.909 39.869 37.4723 39.5353 37.8017 38.868H39.4007C39.184 39.5267 38.7897 40.0683 38.2177 40.493C37.6543 40.909 36.9523 41.117 36.1117 41.117C35.427 41.117 34.8117 40.9653 34.2657 40.662C33.7283 40.35 33.3037 39.9167 32.9917 39.362C32.6883 38.7987 32.5367 38.1487 32.5367 37.412C32.5367 36.6753 32.684 36.0297 32.9787 35.475C33.282 34.9117 33.7023 34.4783 34.2397 34.175C34.7857 33.8717 35.4097 33.72 36.1117 33.72C36.7877 33.72 37.39 33.8673 37.9187 34.162C38.4473 34.4567 38.859 34.8727 39.1537 35.41C39.4483 35.9387 39.5957 36.5497 39.5957 37.243ZM38.0487 36.775C38.04 36.229 37.845 35.7913 37.4637 35.462C37.0823 35.1327 36.61 34.968 36.0467 34.968C35.5353 34.968 35.0977 35.1327 34.7337 35.462C34.3697 35.7827 34.153 36.2203 34.0837 36.775H38.0487ZM42.5361 34.877C42.7528 34.513 43.0388 34.2313 43.3941 34.032C43.7581 33.824 44.1871 33.72 44.6811 33.72V35.254H44.3041C43.7234 35.254 43.2814 35.4013 42.9781 35.696C42.6834 35.9907 42.5361 36.502 42.5361 37.23V41H41.0541V33.837H42.5361V34.877ZM45.5494 37.412C45.5494 36.6753 45.6967 36.0297 45.9914 35.475C46.2947 34.9117 46.7107 34.4783 47.2394 34.175C47.768 33.8717 48.3747 33.72 49.0594 33.72C49.926 33.72 50.641 33.928 51.2044 34.344C51.7764 34.7513 52.162 35.3363 52.3614 36.099H50.7624C50.6324 35.7437 50.4244 35.4663 50.1384 35.267C49.8524 35.0677 49.4927 34.968 49.0594 34.968C48.4527 34.968 47.9674 35.1847 47.6034 35.618C47.248 36.0427 47.0704 36.6407 47.0704 37.412C47.0704 38.1833 47.248 38.7857 47.6034 39.219C47.9674 39.6523 48.4527 39.869 49.0594 39.869C49.9174 39.869 50.485 39.492 50.7624 38.738H52.3614C52.1534 39.466 51.7634 40.0467 51.1914 40.48C50.6194 40.9047 49.9087 41.117 49.0594 41.117C48.3747 41.117 47.768 40.9653 47.2394 40.662C46.7107 40.35 46.2947 39.9167 45.9914 39.362C45.6967 38.7987 45.5494 38.1487 45.5494 37.412ZM53.3443 37.386C53.3443 36.6667 53.4916 36.0297 53.7863 35.475C54.0896 34.9203 54.4969 34.4913 55.0083 34.188C55.5283 33.876 56.1003 33.72 56.7243 33.72C57.2876 33.72 57.7773 33.8327 58.1933 34.058C58.6179 34.2747 58.9559 34.5477 59.2073 34.877V33.837H60.7023V41H59.2073V39.934C58.9559 40.272 58.6136 40.5537 58.1803 40.779C57.7469 41.0043 57.2529 41.117 56.6983 41.117C56.0829 41.117 55.5196 40.961 55.0083 40.649C54.4969 40.3283 54.0896 39.8863 53.7863 39.323C53.4916 38.751 53.3443 38.1053 53.3443 37.386ZM59.2073 37.412C59.2073 36.918 59.1033 36.489 58.8953 36.125C58.6959 35.761 58.4316 35.4837 58.1023 35.293C57.7729 35.1023 57.4176 35.007 57.0363 35.007C56.6549 35.007 56.2996 35.1023 55.9703 35.293C55.6409 35.475 55.3723 35.748 55.1643 36.112C54.9649 36.4673 54.8653 36.892 54.8653 37.386C54.8653 37.88 54.9649 38.3133 55.1643 38.686C55.3723 39.0587 55.6409 39.3447 55.9703 39.544C56.3083 39.7347 56.6636 39.83 57.0363 39.83C57.4176 39.83 57.7729 39.7347 58.1023 39.544C58.4316 39.3533 58.6959 39.076 58.8953 38.712C59.1033 38.3393 59.2073 37.906 59.2073 37.412ZM64.1308 34.877C64.3475 34.513 64.6335 34.2313 64.9888 34.032C65.3528 33.824 65.7818 33.72 66.2758 33.72V35.254H65.8988C65.3182 35.254 64.8762 35.4013 64.5728 35.696C64.2782 35.9907 64.1308 36.502 64.1308 37.23V41H62.6488V33.837H64.1308V34.877ZM67.1441 37.386C67.1441 36.6667 67.2914 36.0297 67.5861 35.475C67.8894 34.9203 68.2968 34.4913 68.8081 34.188C69.3281 33.876 69.9044 33.72 70.5371 33.72C71.0051 33.72 71.4644 33.824 71.9151 34.032C72.3744 34.2313 72.7384 34.5 73.0071 34.838V31.38H74.5021V41H73.0071V39.921C72.7644 40.2677 72.4264 40.5537 71.9931 40.779C71.5684 41.0043 71.0788 41.117 70.5241 41.117C69.9001 41.117 69.3281 40.961 68.8081 40.649C68.2968 40.3283 67.8894 39.8863 67.5861 39.323C67.2914 38.751 67.1441 38.1053 67.1441 37.386ZM73.0071 37.412C73.0071 36.918 72.9031 36.489 72.6951 36.125C72.4958 35.761 72.2314 35.4837 71.9021 35.293C71.5728 35.1023 71.2174 35.007 70.8361 35.007C70.4548 35.007 70.0994 35.1023 69.7701 35.293C69.4408 35.475 69.1721 35.748 68.9641 36.112C68.7648 36.4673 68.6651 36.892 68.6651 37.386C68.6651 37.88 68.7648 38.3133 68.9641 38.686C69.1721 39.0587 69.4408 39.3447 69.7701 39.544C70.1081 39.7347 70.4634 39.83 70.8361 39.83C71.2174 39.83 71.5728 39.7347 71.9021 39.544C72.2314 39.3533 72.4958 39.076 72.6951 38.712C72.9031 38.3393 73.0071 37.906 73.0071 37.412Z" fill="white"/>
</svg>
