<svg width="30" height="24" viewBox="0 0 30 24" fill="none" xmlns="http://www.w3.org/2000/svg">
<path d="M21.4432 9C21.4432 13.5195 16.6697 17.125 10.8807 17.125C8.79863 17.125 6.81816 16.668 5.19316 15.8555C4.07598 16.5156 2.55254 17.125 0.724415 17.125C0.52129 17.125 0.419727 17.0742 0.318165 16.9219C0.267384 16.7695 0.318165 16.5664 0.419727 16.4648C0.419727 16.4648 1.53691 15.2461 2.24785 13.6719C1.0291 12.3516 0.318165 10.7773 0.318165 9C0.318165 4.53125 5.04082 0.875 10.8807 0.875C16.6697 0.875 21.4432 4.53125 21.4432 9ZM27.6385 20.1719C28.2986 21.7461 29.4158 22.9648 29.4158 22.9648C29.5682 23.0664 29.5682 23.2695 29.5174 23.4219C29.4666 23.5742 29.3143 23.625 29.1619 23.625C27.283 23.625 25.7596 23.0156 24.6424 22.3555C23.0174 23.168 21.0877 23.625 19.0057 23.625C14.5877 23.625 10.8299 21.5938 9.25566 18.6992C9.76348 18.75 10.3221 18.75 10.8807 18.75C17.5838 18.75 23.0682 14.3828 23.0682 9C23.0682 8.69531 23.0174 8.33984 22.9666 7.98438C26.826 9.20312 29.5682 12.1484 29.5682 15.5C29.5682 17.2773 28.8064 18.8516 27.6385 20.1719Z" fill="#EC221F"/>
</svg>
